Coordinates
version=1
nRows=5
nColumns=40
inDegrees=yes

Units are S.I. units (second, meters, Newtons, ...)
Angles are in degrees.

endheader
time	pelvis_tilt	pelvis_list	pelvis_rotation	pelvis_tx	pelvis_ty	pelvis_tz	hip_flexion_r	hip_adduction_r	hip_rotation_r	knee_angle_r	knee_angle_r_beta	ankle_angle_r	subtalar_angle_r	mtp_angle_r	hip_flexion_l	hip_adduction_l	hip_rotation_l	knee_angle_l	knee_angle_l_beta	ankle_angle_l	subtalar_angle_l	mtp_angle_l	lumbar_extension	lumbar_bending	lumbar_rotation	arm_flex_r	arm_add_r	arm_rot_r	elbow_flex_r	pro_sup_r	wrist_flex_r	wrist_dev_r	arm_flex_l	arm_add_l	arm_rot_l	elbow_flex_l	pro_sup_l	wrist_flex_l	wrist_dev_l
     13.16500000	     -8.58984536	     -6.11741278	     -3.76667342	      1.02431679	      0.91682484	      0.42716403	     29.46936868	     -1.52906730	     -0.13400940	     25.92701033	     25.92701033	      7.25342563	      4.24369503	      0.92960351	     22.76418941	     -9.36860365	     -2.19358397	     29.54529457	     29.54529457	     16.42647583	    -15.96020619	      2.84631100	    -13.34914401	      4.76412155	      2.68953779	    -11.67859540	    -15.50671947	     -1.39188700	     41.85606443	     46.09117431	      0.00000000	      0.00000000	     33.82249002	    -14.43249572	      8.16269486	     90.57067597	     47.51309803	      0.00000000	      0.00000000
     13.18607143	     -8.48556895	     -5.80421334	     -3.30277015	      1.02326585	      0.91694080	      0.43243929	     28.77380182	     -1.84258303	     -0.41151458	     24.81816970	     24.81816970	      7.07779654	      5.90572799	      1.18059317	     22.29340723	     -9.27940453	     -1.96067913	     29.11560444	     29.11560444	     16.39671499	    -15.73935860	      2.77503748	    -13.57510002	      4.38491256	      2.69545386	    -11.36758501	    -15.08295553	     -1.46140952	     42.68990139	     46.05883734	      0.00000000	      0.00000000	     34.52498027	    -14.10536909	      8.23231841	     92.44775521	     47.55824477	      0.00000000	      0.00000000
     13.20714286	     -8.43852895	     -5.36723374	     -2.76224431	      1.02222057	      0.91642212	      0.43767848	     28.35405577	     -2.26463709	     -0.88494415	     24.41811924	     24.41811924	      7.27132355	      7.14592536	      1.02202578	     22.05435681	     -9.02746353	     -1.59260749	     28.96130794	     28.96130794	     16.32564856	    -15.74640834	      2.56558410	    -13.80770766	      3.96528433	      2.11316216	    -10.89204878	    -14.75118597	     -1.95138368	     44.74320500	     45.98899460	      0.00000000	      0.00000000	     34.36574231	    -14.33564085	      7.88394186	     95.69391002	     47.67706720	      0.00000000	      0.00000000
     13.22821429	     -8.39658179	     -4.97171859	     -2.18114203	      1.02133073	      0.91582907	      0.44303732	     27.90679099	     -2.47940870	     -1.07683754	     24.21581195	     24.21581195	      7.67982917	      7.22725462	      0.88610433	     21.86634642	     -8.83664899	     -1.19916779	     28.91008513	     28.91008513	     16.40630307	    -15.57844018	      2.51765161	    -13.90296738	      3.63849688	      2.15064487	    -10.08002796	    -14.50644445	     -1.93914163	     45.14701379	     45.97611104	      0.00000000	      0.00000000	     34.88655842	    -13.76218678	      7.96179601	     96.40014945	     47.69302412	      0.00000000	      0.00000000
     13.24928571	     -8.28113606	     -4.52872310	     -1.62395272	      1.02059509	      0.91535576	      0.44840587	     27.38507617	     -2.77873854	     -1.63733601	     24.16804589	     24.16804589	      8.12805411	      7.57277975	     -0.03437614	     21.50553052	     -8.55473996	     -0.72732455	     28.72439196	     28.72439196	     16.49252070	    -15.68180286	      2.80513405	    -14.27450860	      3.25876239	      1.79661879	     -9.03975229	    -14.29819529	     -2.43014189	     46.17639732	     45.95081639	      0.00000000	      0.00000000	     34.39973808	    -13.57617340	      7.35925131	     99.09091866	     47.81228434	      0.00000000	      0.00000000
